<svg width="381" height="577" viewBox="0 0 381 577" fill="none" xmlns="http://www.w3.org/2000/svg">
<path d="M304.014 298.595H92.526L8.26125 210.2L8.26138 90.8738L94.1784 0H285.839L371.756 90.8738V194.966H303.188V122.266L253.62 71.0468H127.223L84.2649 114.831L84.2647 186.242L124.745 227.549H380.017V486.126L294.1 576.999H85.917L0 486.126V324.5H68.5684V454.733L118.962 505.953H261.882L304.014 462.168V298.595Z" fill="#1E293B"/>
<path d="M237 425.5C237 451.181 216.181 472 190.5 472C164.819 472 144 451.181 144 425.5C144 399.819 164.819 379 190.5 379C216.181 379 237 399.819 237 425.5Z" fill="#1E293B"/>
<path d="M168 329H211.5L204 429H176L168 329Z" fill="#1E293B"/>
</svg>
